<svg viewBox="0 0 400 250" xmlns="http://www.w3.org/2000/svg">
  <defs>
    <linearGradient id="bgFW" x1="0" y1="0" x2="1" y2="1">
      <stop offset="0%" stop-color="#0A1428"/>
      <stop offset="100%" stop-color="#132548"/>
    </linearGradient>
  </defs>
  <rect width="400" height="250" fill="url(#bgFW)"/>
  <!-- tree -->
  <g transform="translate(150,195)">
    <rect x="-6" y="-40" width="12" height="40" fill="#8A6E1C"/>
    <circle cx="0" cy="-70" r="34" fill="#3E7A5B"/>
    <circle cx="-24" cy="-52" r="22" fill="#4C9070"/>
    <circle cx="24" cy="-52" r="22" fill="#4C9070"/>
    <circle cx="0" cy="-95" r="20" fill="#5CA582"/>
  </g>
  <!-- water droplet -->
  <g transform="translate(270,140)">
    <path d="M0,-50 C24,-16 40,6 40,26 A40,40 0 1 1 -40,26 C-40,6 -24,-16 0,-50 Z" fill="#3B6EA8" opacity="0.9"/>
    <path d="M0,-50 C24,-16 40,6 40,26 A40,40 0 1 1 -40,26 C-40,6 -24,-16 0,-50 Z" fill="none" stroke="#F4C542" stroke-width="2"/>
    <ellipse cx="-12" cy="15" rx="8" ry="12" fill="#F4EFE6" opacity="0.4"/>
  </g>
  <!-- ground line -->
  <line x1="30" y1="207" x2="370" y2="207" stroke="#2A3F66" stroke-width="2"/>
  <text x="200" y="235" text-anchor="middle" font-family="Georgia, serif" font-size="13" fill="#F4EFE6" letter-spacing="1.5">FORESTRY &amp; WATER DAY</text>
</svg>
