<svg viewBox="0 0 400 250" xmlns="http://www.w3.org/2000/svg">
  <defs>
    <linearGradient id="bgSD" x1="0" y1="0" x2="1" y2="1">
      <stop offset="0%" stop-color="#0A1428"/>
      <stop offset="100%" stop-color="#16294D"/>
    </linearGradient>
  </defs>
  <rect width="400" height="250" fill="url(#bgSD)"/>
  <!-- flask -->
  <g transform="translate(155,150)">
    <path d="M-10,-55 L-10,-20 L-38,42 Q-40,55 -22,55 L22,55 Q40,55 38,42 L10,-20 L10,-55 Z" fill="none" stroke="#F4C542" stroke-width="3"/>
    <path d="M-24,20 Q0,4 24,20 L38,42 Q40,55 22,55 L-22,55 Q-40,55 -38,42 Z" fill="#F4C542" opacity="0.35"/>
    <line x1="-16" y1="-55" x2="16" y2="-55" stroke="#F4C542" stroke-width="3"/>
    <circle cx="-6" cy="30" r="4" fill="#F4EFE6" opacity="0.8"/>
    <circle cx="10" cy="14" r="3" fill="#F4EFE6" opacity="0.6"/>
    <circle cx="4" cy="42" r="2.5" fill="#F4EFE6" opacity="0.7"/>
  </g>
  <!-- speech bubble for presentation -->
  <g transform="translate(270,105)">
    <rect x="-55" y="-32" width="110" height="60" rx="14" fill="#F4EFE6" opacity="0.95"/>
    <path d="M-18,26 L-8,44 L2,26 Z" fill="#F4EFE6" opacity="0.95"/>
    <text x="0" y="-8" text-anchor="middle" font-family="Georgia, serif" font-size="13" fill="#0A1428" font-weight="bold">E = mc&#178;</text>
    <line x1="-35" y1="8" x2="35" y2="8" stroke="#0A1428" stroke-width="1.5" opacity="0.5"/>
    <line x1="-35" y1="18" x2="20" y2="18" stroke="#0A1428" stroke-width="1.5" opacity="0.5"/>
  </g>
  <text x="200" y="230" text-anchor="middle" font-family="Georgia, serif" font-size="15" fill="#F4EFE6" letter-spacing="2">SCIENCE DAY</text>
</svg>
