<svg viewBox="0 0 400 250" xmlns="http://www.w3.org/2000/svg">
  <defs>
    <linearGradient id="bgTD" x1="0" y1="0" x2="1" y2="1">
      <stop offset="0%" stop-color="#0A1428"/>
      <stop offset="100%" stop-color="#16294D"/>
    </linearGradient>
  </defs>
  <rect width="400" height="250" fill="url(#bgTD)"/>
  <!-- open book -->
  <g transform="translate(200,168)">
    <path d="M-90,-14 Q-45,-30 0,-14 L0,44 Q-45,28 -90,44 Z" fill="#F4EFE6"/>
    <path d="M90,-14 Q45,-30 0,-14 L0,44 Q45,28 90,44 Z" fill="#EAE2D0"/>
    <path d="M-90,-14 Q-45,-30 0,-14 L0,44 Q-45,28 -90,44 Z" fill="none" stroke="#C9A227" stroke-width="1.5"/>
    <path d="M90,-14 Q45,-30 0,-14 L0,44 Q45,28 90,44 Z" fill="none" stroke="#C9A227" stroke-width="1.5"/>
    <g stroke="#B9AF98" stroke-width="1" opacity="0.7">
      <path d="M-78,-8 Q-40,-20 -8,-8" fill="none"/>
      <path d="M-78,4 Q-40,-8 -8,4" fill="none"/>
      <path d="M-78,16 Q-40,4 -8,16" fill="none"/>
      <path d="M-78,28 Q-40,16 -8,28" fill="none"/>
    </g>
  </g>
  <!-- feather quill -->
  <g transform="translate(220,150) rotate(28)">
    <path d="M0,0 C10,-45 40,-70 55,-90 C40,-65 30,-30 18,-4 Z" fill="#F4C542"/>
    <path d="M0,0 C10,-45 40,-70 55,-90 C40,-65 30,-30 18,-4 Z" fill="none" stroke="#C9A227" stroke-width="1"/>
    <line x1="4" y1="-6" x2="52" y2="-88" stroke="#C9A227" stroke-width="1"/>
    <line x1="8" y1="-18" x2="30" y2="-52" stroke="#E7B84B" stroke-width="0.75"/>
    <line x1="12" y1="-30" x2="34" y2="-62" stroke="#E7B84B" stroke-width="0.75"/>
    <rect x="-3" y="-2" width="8" height="14" rx="2" fill="#8A6E1C"/>
  </g>
  <!-- ink drop accents -->
  <circle cx="80" cy="80" r="3" fill="#F4C542" opacity="0.6"/>
  <circle cx="100" cy="65" r="2" fill="#F4C542" opacity="0.5"/>
  <circle cx="320" cy="70" r="2.5" fill="#F4C542" opacity="0.5"/>
  <text x="200" y="230" text-anchor="middle" font-family="Georgia, serif" font-size="15" fill="#F4EFE6" letter-spacing="2">TEACHERS' DAY</text>
</svg>
