<svg viewBox="0 0 400 250" xmlns="http://www.w3.org/2000/svg">
  <defs>
    <linearGradient id="bgVA" x1="0" y1="0" x2="1" y2="1">
      <stop offset="0%" stop-color="#0A1428"/>
      <stop offset="100%" stop-color="#132548"/>
    </linearGradient>
    <radialGradient id="glowVA" cx="50%" cy="35%" r="55%">
      <stop offset="0%" stop-color="#F4C542" stop-opacity="0.3"/>
      <stop offset="100%" stop-color="#F4C542" stop-opacity="0"/>
    </radialGradient>
  </defs>
  <rect width="400" height="250" fill="url(#bgVA)"/>
  <rect width="400" height="250" fill="url(#glowVA)"/>
  <!-- trophy -->
  <g transform="translate(170,140)">
    <path d="M-24,-40 L24,-40 L20,-4 Q20,16 0,16 Q-20,16 -24,-4 Z" fill="#F4C542"/>
    <path d="M-24,-34 C-44,-34 -44,-6 -22,-2" fill="none" stroke="#F4C542" stroke-width="4"/>
    <path d="M24,-34 C44,-34 44,-6 22,-2" fill="none" stroke="#F4C542" stroke-width="4"/>
    <rect x="-5" y="16" width="10" height="14" fill="#E7B84B"/>
    <path d="M-22,30 L22,30 L18,42 L-18,42 Z" fill="#C9A227"/>
  </g>
  <!-- certificate with ribbon -->
  <g transform="translate(275,150)">
    <rect x="-40" y="-50" width="80" height="58" rx="4" fill="#F4EFE6"/>
    <rect x="-40" y="-50" width="80" height="58" rx="4" fill="none" stroke="#C9A227" stroke-width="2"/>
    <line x1="-28" y1="-32" x2="28" y2="-32" stroke="#0A1428" stroke-width="1.5" opacity="0.4"/>
    <line x1="-28" y1="-22" x2="20" y2="-22" stroke="#0A1428" stroke-width="1.5" opacity="0.4"/>
    <line x1="-28" y1="-12" x2="28" y2="-12" stroke="#0A1428" stroke-width="1.5" opacity="0.4"/>
    <circle cx="0" cy="10" r="10" fill="#C9536B"/>
    <path d="M-10,14 L-16,32 L0,22 L16,32 L10,14" fill="#C9536B"/>
  </g>
  <text x="200" y="225" text-anchor="middle" font-family="Georgia, serif" font-size="15" fill="#F4EFE6" letter-spacing="2">VALEDICTORY</text>
</svg>
